<?xml version="1.0" encoding="utf-8"?>
<!-- Generator: Adobe Illustrator 28.1.0, SVG Export Plug-In . SVG Version: 6.00 Build 0)  -->
<svg version="1.1" id="Layer_1" xmlns="http://www.w3.org/2000/svg" xmlns:xlink="http://www.w3.org/1999/xlink" x="0px" y="0px"
	 viewBox="0 0 1000 200" style="enable-background:new 0 0 1000 200;" xml:space="preserve">
<style type="text/css">
	.st0{fill:#FFFFFF;}
	.st1{fill:url(#SVGID_1_);}
	.st2{fill:url(#SVGID_00000123430037999674872300000003561996247620115108_);}
</style>
<g>
	<g>
		<g>
			<path class="st0" d="M8.9,4.3C6.9,4.3,5.2,6,5.2,8v34.5v44.1c0,2.1,1.7,3.8,3.8,3.8h30.8c2.1,0,3.8-1.7,3.8-3.8V46.3
				c0-2.1,1.7-3.8,3.8-3.8h69.1c2.1,0,3.8-1.7,3.8-3.8V8c0-2.1-1.7-3.8-3.8-3.8H8.9z"/>
			<path class="st0" d="M43.5,153.7v-40.3c0-2.1-1.7-3.8-3.8-3.8H8.9c-2.1,0-3.8,1.7-3.8,3.8V192c0,2.1,1.7,3.8,3.8,3.8h34.5h72.8
				c2.1,0,3.8-1.7,3.8-3.8v-30.8c0-2.1-1.7-3.8-3.8-3.8H47.2C45.2,157.4,43.5,155.8,43.5,153.7z"/>
			<linearGradient id="SVGID_1_" gradientUnits="userSpaceOnUse" x1="81.7598" y1="61.7058" x2="81.7598" y2="138.2942">
				<stop  offset="0" style="stop-color:#FF007F"/>
				<stop  offset="1" style="stop-color:#004FFF"/>
			</linearGradient>
			<path class="st1" d="M97.1,61.7H66.4c-2.1,0-3.8,1.7-3.8,3.8V100v34.5c0,2.1,1.7,3.8,3.8,3.8h30.8c2.1,0,3.8-1.7,3.8-3.8V100
				V65.5C100.9,63.4,99.2,61.7,97.1,61.7z"/>
		</g>
		<g>
			<path class="st0" d="M192.7,160c-10.6,0-19.6-1.7-27.1-5.2c-7.5-3.4-13.3-8.5-17.5-15.2c-4.2-6.7-6.5-14.9-6.9-24.8
				c-0.1-4.6-0.2-9.4-0.2-14.7c0-5.2,0.1-10.2,0.2-15c0.4-9.7,2.8-17.9,7-24.6c4.2-6.7,10.1-11.8,17.7-15.3
				c7.6-3.5,16.5-5.3,26.8-5.3c7.3,0,14.1,0.9,20.3,2.7c6.2,1.8,11.7,4.5,16.3,8c4.7,3.5,8.3,7.7,10.9,12.7c2.6,4.9,4,10.5,4.1,16.8
				c0.1,1-0.2,1.8-0.9,2.5c-0.7,0.7-1.6,1-2.6,1h-22.5c-1.4,0-2.6-0.3-3.3-0.9c-0.8-0.6-1.4-1.8-2-3.4c-1.6-5.9-4.1-9.9-7.6-12.1
				c-3.5-2.2-7.8-3.3-12.9-3.3c-6.1,0-10.9,1.7-14.5,5.1c-3.6,3.4-5.5,9-5.8,16.9c-0.3,9.1-0.3,18.4,0,28c0.3,7.9,2.3,13.5,5.8,16.9
				c3.6,3.4,8.4,5.1,14.5,5.1c5.1,0,9.4-1.1,13-3.3c3.6-2.2,6.1-6.2,7.5-12c0.4-1.7,1.1-2.8,1.9-3.4c0.8-0.6,2-0.9,3.4-0.9h22.5
				c1,0,1.9,0.3,2.6,1c0.7,0.7,1,1.5,0.9,2.5c-0.1,6.2-1.5,11.8-4.1,16.8c-2.6,4.9-6.3,9.2-10.9,12.7c-4.7,3.5-10.1,6.2-16.3,8
				C206.8,159.1,200,160,192.7,160z"/>
			<path class="st0" d="M264.2,158.3c-1.2,0-2.2-0.4-3-1.2c-0.8-0.8-1.2-1.8-1.2-3V75.8c0-1.1,0.4-2.1,1.2-2.9
				c0.8-0.8,1.8-1.3,3-1.3h19.2c1.2,0,2.2,0.4,3,1.3c0.8,0.8,1.2,1.8,1.2,2.9v6.7c3-3.4,6.6-6.1,10.8-8c4.2-1.9,8.9-2.8,14.1-2.8
				h7.3c1.1,0,2.1,0.4,2.9,1.2c0.8,0.8,1.3,1.8,1.3,3V93c0,1.1-0.4,2.1-1.3,2.9c-0.8,0.8-1.8,1.2-2.9,1.2h-16.2
				c-4.6,0-8.1,1.3-10.6,3.8c-2.5,2.5-3.8,6-3.8,10.6v42.7c0,1.2-0.4,2.2-1.3,3c-0.8,0.8-1.9,1.2-3.1,1.2H264.2z"/>
			<path class="st0" d="M374.8,160c-13.1,0-23.6-3.6-31.3-10.7c-7.8-7.1-11.8-17.7-12.2-31.7c0-0.8,0-1.8,0-3c0-1.2,0-2.2,0-2.8
				c0.3-8.8,2.3-16.3,5.9-22.6c3.6-6.3,8.6-11.1,15-14.3c6.4-3.3,13.9-4.9,22.4-4.9c9.8,0,17.9,1.9,24.3,5.8
				c6.4,3.9,11.2,9.2,14.4,15.8c3.2,6.7,4.8,14.3,4.8,22.8v4c0,1.2-0.4,2.2-1.3,3c-0.8,0.8-1.8,1.2-2.9,1.2h-53.3c0,0.1,0,0.3,0,0.5
				c0,0.2,0,0.4,0,0.7c0.1,3.2,0.7,6.2,1.7,8.8c1,2.7,2.6,4.8,4.7,6.3c2.1,1.6,4.7,2.3,7.7,2.3c2.2,0,4.1-0.4,5.6-1.1
				c1.5-0.7,2.7-1.6,3.8-2.5c1-0.9,1.8-1.8,2.3-2.4c1-1.1,1.8-1.8,2.4-2.1c0.6-0.3,1.6-0.4,2.9-0.4h20.7c1.1,0,2,0.3,2.8,0.9
				c0.7,0.6,1,1.5,0.9,2.6c-0.1,1.9-1.1,4.2-2.8,6.8c-1.8,2.7-4.4,5.3-7.7,7.9c-3.4,2.6-7.6,4.7-12.8,6.4
				C387.5,159.2,381.6,160,374.8,160z M360.7,106.2h28.2v-0.3c0-3.6-0.5-6.7-1.6-9.3c-1.1-2.7-2.7-4.7-4.8-6.2
				c-2.2-1.4-4.7-2.2-7.8-2.2c-3,0-5.5,0.7-7.6,2.2c-2.1,1.4-3.6,3.5-4.8,6.2c-1.1,2.7-1.7,5.8-1.7,9.3V106.2z"/>
			<path class="st0" d="M459.8,160c-6,0-11.4-1.1-16.1-3.4c-4.7-2.3-8.5-5.4-11.3-9.3c-2.8-3.9-4.2-8.3-4.2-13.2
				c0-7.9,3.2-14.1,9.7-18.8c6.4-4.6,15-7.8,25.7-9.4l20.8-3.2v-2.3c0-4-0.8-7.1-2.5-9.2c-1.7-2.1-4.7-3.2-9.2-3.2
				c-3.1,0-5.6,0.6-7.6,1.8c-1.9,1.2-3.5,2.9-4.6,5c-1,1.4-2.4,2.2-4.2,2.2h-18.7c-1.2,0-2.2-0.4-2.8-1.1c-0.7-0.7-0.9-1.6-0.8-2.6
				c0-2,0.8-4.3,2.2-6.9c1.5-2.6,3.8-5.2,6.9-7.8c3.1-2.6,7.1-4.7,12-6.3c4.9-1.7,10.8-2.5,17.7-2.5c7.2,0,13.4,0.8,18.5,2.5
				c5.1,1.7,9.3,4,12.4,7c3.2,3,5.5,6.5,7.1,10.6c1.6,4.1,2.3,8.5,2.3,13.4v50.7c0,1.2-0.4,2.2-1.3,3c-0.8,0.8-1.8,1.2-2.9,1.2
				h-19.3c-1.2,0-2.2-0.4-3-1.2c-0.8-0.8-1.2-1.8-1.2-3v-5.8c-1.4,2.1-3.4,4.1-5.8,5.8c-2.4,1.8-5.3,3.2-8.6,4.2
				C468,159.5,464.2,160,459.8,160z M467.7,141c3.2,0,6.1-0.7,8.8-2.1c2.6-1.4,4.7-3.6,6.2-6.5c1.5-2.9,2.2-6.6,2.2-11.1V119
				l-14.2,2.5c-5.2,0.9-9,2.3-11.4,4.1c-2.4,1.8-3.6,4-3.6,6.4c0,1.9,0.6,3.5,1.7,4.8c1.1,1.3,2.6,2.4,4.3,3.1
				C463.4,140.6,465.4,141,467.7,141z"/>
			<path class="st0" d="M575.8,158.3c-7.1,0-13.3-1.1-18.4-3.4c-5.2-2.3-9.1-5.8-11.9-10.7c-2.8-4.8-4.2-11.1-4.2-18.8v-32h-13
				c-1.2,0-2.2-0.4-3.1-1.2c-0.8-0.8-1.3-1.8-1.3-3V75.8c0-1.2,0.4-2.2,1.3-3c0.8-0.8,1.9-1.2,3.1-1.2h13V44.2c0-1.2,0.4-2.2,1.2-3
				c0.8-0.8,1.8-1.2,2.9-1.2h19.3c1.2,0,2.2,0.4,3,1.2c0.8,0.8,1.2,1.8,1.2,3v27.5h20.8c1.2,0,2.2,0.4,3,1.2c0.8,0.8,1.2,1.8,1.2,3
				v13.5c0,1.2-0.4,2.2-1.2,3c-0.8,0.8-1.8,1.2-3,1.2H569v29.7c0,3.8,0.7,6.8,2.2,9c1.4,2.2,3.9,3.3,7.3,3.3h12.8
				c1.2,0,2.2,0.4,3,1.2c0.8,0.8,1.2,1.8,1.2,3v14.5c0,1.2-0.4,2.2-1.2,3c-0.8,0.8-1.8,1.2-3,1.2H575.8z"/>
			<path class="st0" d="M649.3,160c-13.1,0-23.6-3.6-31.3-10.7c-7.8-7.1-11.8-17.7-12.2-31.7c0-0.8,0-1.8,0-3c0-1.2,0-2.2,0-2.8
				c0.3-8.8,2.3-16.3,5.9-22.6c3.6-6.3,8.6-11.1,15-14.3c6.4-3.3,13.9-4.9,22.4-4.9c9.8,0,17.9,1.9,24.3,5.8
				c6.4,3.9,11.2,9.2,14.4,15.8c3.2,6.7,4.8,14.3,4.8,22.8v4c0,1.2-0.4,2.2-1.3,3c-0.8,0.8-1.8,1.2-2.9,1.2h-53.3c0,0.1,0,0.3,0,0.5
				c0,0.2,0,0.4,0,0.7c0.1,3.2,0.7,6.2,1.7,8.8c1,2.7,2.6,4.8,4.7,6.3c2.1,1.6,4.7,2.3,7.7,2.3c2.2,0,4.1-0.4,5.6-1.1
				c1.5-0.7,2.7-1.6,3.8-2.5c1-0.9,1.8-1.8,2.3-2.4c1-1.1,1.8-1.8,2.4-2.1c0.6-0.3,1.6-0.4,2.9-0.4h20.7c1.1,0,2,0.3,2.8,0.9
				c0.7,0.6,1,1.5,0.9,2.6c-0.1,1.9-1.1,4.2-2.8,6.8c-1.8,2.7-4.4,5.3-7.7,7.9c-3.4,2.6-7.6,4.7-12.8,6.4
				C662,159.2,656.1,160,649.3,160z M635.2,106.2h28.2v-0.3c0-3.6-0.5-6.7-1.6-9.3c-1.1-2.7-2.7-4.7-4.8-6.2
				c-2.2-1.4-4.7-2.2-7.8-2.2c-3,0-5.5,0.7-7.6,2.2c-2.1,1.4-3.6,3.5-4.8,6.2c-1.1,2.7-1.7,5.8-1.7,9.3V106.2z"/>
			
				<linearGradient id="SVGID_00000165928835902864190070000008649424841627745184_" gradientUnits="userSpaceOnUse" x1="710.1615" y1="100" x2="994.8286" y2="100">
				<stop  offset="0" style="stop-color:#FF007F"/>
				<stop  offset="1" style="stop-color:#004FFF"/>
			</linearGradient>
			<path style="fill:url(#SVGID_00000165928835902864190070000008649424841627745184_);" d="M714.3,158.3c-1.2,0-2.2-0.4-3-1.2
				c-0.8-0.8-1.2-1.8-1.2-3V45.8c0-1.2,0.4-2.2,1.2-3c0.8-0.8,1.8-1.2,3-1.2h22c1.1,0,2.1,0.4,2.9,1.2c0.8,0.8,1.3,1.8,1.3,3v87.3
				h50.3c1.2,0,2.2,0.4,3.1,1.2c0.8,0.8,1.3,1.9,1.3,3.1v16.7c0,1.2-0.4,2.2-1.3,3c-0.8,0.8-1.9,1.2-3.1,1.2H714.3z M833.8,160
				c-6,0-11.4-1.1-16.1-3.4c-4.7-2.3-8.5-5.4-11.3-9.3c-2.8-3.9-4.2-8.3-4.2-13.2c0-7.9,3.2-14.1,9.7-18.8c6.4-4.6,15-7.8,25.7-9.4
				l20.8-3.2v-2.3c0-4-0.8-7.1-2.5-9.2c-1.7-2.1-4.7-3.2-9.2-3.2c-3.1,0-5.6,0.6-7.6,1.8c-1.9,1.2-3.5,2.9-4.6,5
				c-1,1.4-2.4,2.2-4.2,2.2h-18.7c-1.2,0-2.2-0.4-2.8-1.1c-0.7-0.7-0.9-1.6-0.8-2.6c0-2,0.8-4.3,2.2-6.9c1.5-2.6,3.8-5.2,6.9-7.8
				c3.1-2.6,7.1-4.7,12-6.3c4.9-1.7,10.8-2.5,17.7-2.5c7.2,0,13.4,0.8,18.5,2.5c5.1,1.7,9.3,4,12.4,7c3.2,3,5.5,6.5,7.1,10.6
				c1.6,4.1,2.3,8.5,2.3,13.4v50.7c0,1.2-0.4,2.2-1.3,3c-0.8,0.8-1.8,1.2-2.9,1.2h-19.3c-1.2,0-2.2-0.4-3-1.2
				c-0.8-0.8-1.2-1.8-1.2-3v-5.8c-1.4,2.1-3.4,4.1-5.8,5.8c-2.4,1.8-5.3,3.2-8.6,4.2C842,159.5,838.2,160,833.8,160z M841.7,141
				c3.2,0,6.1-0.7,8.8-2.1c2.6-1.4,4.7-3.6,6.2-6.5c1.5-2.9,2.2-6.6,2.2-11.1V119l-14.2,2.5c-5.2,0.9-9,2.3-11.4,4.1
				c-2.4,1.8-3.6,4-3.6,6.4c0,1.9,0.6,3.5,1.7,4.8c1.1,1.3,2.6,2.4,4.3,3.1C837.4,140.6,839.4,141,841.7,141z M959.2,160
				c-6.2,0-11.4-1.1-15.6-3.2c-4.2-2.1-7.6-4.8-10.3-8v5.3c0,1.2-0.4,2.2-1.2,3c-0.8,0.8-1.8,1.2-2.9,1.2h-18.8
				c-1.2,0-2.2-0.4-3-1.2c-0.8-0.8-1.2-1.8-1.2-3v-110c0-1.2,0.4-2.2,1.2-3c0.8-0.8,1.8-1.2,3-1.2h20.3c1.2,0,2.2,0.4,3,1.2
				c0.8,0.8,1.2,1.8,1.2,3v35.7c2.7-2.9,6-5.3,10.1-7.1c4.1-1.8,8.8-2.8,14.2-2.8c5.6,0,10.5,0.9,14.8,2.8c4.3,1.8,7.9,4.5,10.9,7.9
				c3,3.4,5.3,7.6,7,12.3c1.7,4.8,2.6,10.2,2.8,16.2c0.1,2.1,0.2,4,0.2,5.7c0,1.7-0.1,3.7-0.2,5.9c-0.2,6.2-1.2,11.8-2.9,16.6
				c-1.7,4.8-4.1,8.9-7.1,12.3c-3,3.4-6.6,5.9-10.8,7.7C969.6,159.1,964.7,160,959.2,160z M950.2,137.7c3.8,0,6.7-0.8,8.8-2.3
				c2.1-1.6,3.6-3.7,4.6-6.3c0.9-2.7,1.5-5.6,1.7-8.8c0.2-3.4,0.2-6.9,0-10.3c-0.2-3.2-0.8-6.2-1.7-8.8c-0.9-2.7-2.5-4.8-4.6-6.3
				c-2.1-1.6-5.1-2.3-8.8-2.3c-3.4,0-6.3,0.8-8.5,2.3c-2.2,1.5-3.9,3.4-5,5.8c-1.1,2.4-1.7,5-1.8,7.8c-0.1,2.1-0.2,4.2-0.2,6.2
				c0,2,0.1,4.1,0.2,6.3c0.1,3,0.7,5.8,1.7,8.3c1,2.6,2.6,4.6,4.8,6.3C943.5,136.9,946.5,137.7,950.2,137.7z"/>
		</g>
	</g>
</g>
</svg>
