<?xml version="1.0" encoding="utf-8"?>
<!-- Generator: Adobe Illustrator 28.1.0, SVG Export Plug-In . SVG Version: 6.00 Build 0)  -->
<svg version="1.1" id="Layer_1" xmlns="http://www.w3.org/2000/svg" xmlns:xlink="http://www.w3.org/1999/xlink" x="0px" y="0px"
	 viewBox="0 0 125.3 200" style="enable-background:new 0 0 125.3 200;" xml:space="preserve">
<style type="text/css">
	.st0{fill:#FFFFFF;}
	.st1{fill:url(#SVGID_1_);}
</style>
<g>
	<g>
		<g>
			<path class="st0" d="M9,4.3C6.9,4.3,5.2,6,5.2,8v34.5v44.1c0,2.1,1.7,3.8,3.8,3.8h30.8c2.1,0,3.8-1.7,3.8-3.8V46.3
				c0-2.1,1.7-3.8,3.8-3.8h69.1c2.1,0,3.8-1.7,3.8-3.8V8c0-2.1-1.7-3.8-3.8-3.8H9z"/>
			<path class="st0" d="M43.5,153.7v-40.3c0-2.1-1.7-3.8-3.8-3.8H9c-2.1,0-3.8,1.7-3.8,3.8V192c0,2.1,1.7,3.8,3.8,3.8h34.5h72.8
				c2.1,0,3.8-1.7,3.8-3.8v-30.8c0-2.1-1.7-3.8-3.8-3.8H47.2C45.2,157.4,43.5,155.8,43.5,153.7z"/>
			<linearGradient id="SVGID_1_" gradientUnits="userSpaceOnUse" x1="81.7736" y1="61.7058" x2="81.7736" y2="138.2942">
				<stop  offset="0" style="stop-color:#FF007F"/>
				<stop  offset="1" style="stop-color:#004FFF"/>
			</linearGradient>
			<path class="st1" d="M97.2,61.7H66.4c-2.1,0-3.8,1.7-3.8,3.8V100v34.5c0,2.1,1.7,3.8,3.8,3.8h30.8c2.1,0,3.8-1.7,3.8-3.8V100
				V65.5C100.9,63.4,99.2,61.7,97.2,61.7z"/>
		</g>
	</g>
</g>
</svg>
